<svg width="38" height="30" viewBox="0 0 38 30" fill="none" xmlns="http://www.w3.org/2000/svg">
<path d="M25.2002 28.9498V25.8498C25.2002 24.2055 24.547 22.6285 23.3843 21.4657C22.2215 20.303 20.6445 19.6498 19.0002 19.6498H8.1502C6.50585 19.6498 4.92886 20.303 3.76613 21.4657C2.60341 22.6285 1.9502 24.2055 1.9502 25.8498V28.9498M28.3002 8.7998L36.0502 16.5498M36.0502 8.7998L28.3002 16.5498M19.7752 7.2498C19.7752 10.674 16.9994 13.4498 13.5752 13.4498C10.151 13.4498 7.3752 10.674 7.3752 7.2498C7.3752 3.82564 10.151 1.0498 13.5752 1.0498C16.9994 1.0498 19.7752 3.82564 19.7752 7.2498Z" stroke="#5C5C5C" stroke-width="2" stroke-linecap="round" stroke-linejoin="round"/>
</svg>
